<?xml version="1.0" encoding="UTF-8" standalone="no"?>
<!-- Created with Inkscape (http://www.inkscape.org/) -->

<svg
   width="15mm"
   height="15mm"
   viewBox="0 0 15 15"
   version="1.1"
   id="svg1"
   inkscape:version="1.3.2 (091e20ef0f, 2023-11-25, custom)"
   sodipodi:docname="settings_slider.svg"
   xmlns:inkscape="http://www.inkscape.org/namespaces/inkscape"
   xmlns:sodipodi="http://sodipodi.sourceforge.net/DTD/sodipodi-0.dtd"
   xmlns="http://www.w3.org/2000/svg"
   xmlns:svg="http://www.w3.org/2000/svg">
  <sodipodi:namedview
     id="namedview1"
     pagecolor="#505050"
     bordercolor="#ffffff"
     borderopacity="1"
     inkscape:showpageshadow="0"
     inkscape:pageopacity="0"
     inkscape:pagecheckerboard="1"
     inkscape:deskcolor="#505050"
     inkscape:document-units="mm"
     showgrid="true"
     inkscape:zoom="9.5144352"
     inkscape:cx="56.493106"
     inkscape:cy="30.007036"
     inkscape:window-width="1916"
     inkscape:window-height="1175"
     inkscape:window-x="0"
     inkscape:window-y="0"
     inkscape:window-maximized="0"
     inkscape:current-layer="layer1">
    <inkscape:grid
       id="grid1"
       units="mm"
       originx="0"
       originy="0"
       spacingx="0.99999998"
       spacingy="1"
       empcolor="#0099e5"
       empopacity="0.30196078"
       color="#0099e5"
       opacity="0.14901961"
       empspacing="5"
       dotted="false"
       gridanglex="30"
       gridanglez="30"
       visible="true" />
  </sodipodi:namedview>
  <defs
     id="defs1" />
  <g
     inkscape:label="Warstwa 1"
     inkscape:groupmode="layer"
     id="layer1">
    <path
       id="rect29"
       style="fill:#48d55e;fill-opacity:1;stroke-width:0"
       d="M 6.8724487 10.999845 A 4 4 0 0 1 7.0000895 11.999784 A 4 4 0 0 1 6.865214 13.00024 L 13.00024 13.00024 A 0.99999994 0.99999994 0 0 0 14.000179 11.999784 A 0.99999994 0.99999994 0 0 0 13.00024 10.999845 L 6.8724487 10.999845 z " />
    <ellipse
       style="fill:#48d55e;fill-opacity:1;stroke-width:0"
       id="path33"
       cx="3"
       cy="12"
       rx="2"
       ry="1.9999999" />
    <path
       id="rect34"
       style="fill:#48d55e;fill-opacity:1;stroke-width:0"
       d="M 1.9998779 5.0002116 A 0.99999994 0.99999994 0 0 0 0.99993896 6.0001506 L 0.99993896 8.2501424 A 0.99999994 0.7500376 0 0 0 1.0640177 8.5126587 A 3.9999998 3.9999998 0 0 1 2.9998169 8.0000285 L 2.9998169 6.0001506 A 0.99999994 0.99999994 0 0 0 1.9998779 5.0002116 z " />
    <path
       id="rect35"
       style="fill:#48d55e;fill-opacity:1;stroke-width:0"
       d="M 13.00024 5.0002116 A 0.99999994 0.99999982 0 0 0 11.999784 6.0001506 L 11.999784 8.9999674 L 12.001851 8.9999674 A 0.99999994 0.97540796 0 0 0 11.999784 9.0247721 A 0.99999994 0.97540796 0 0 0 13.00024 9.9999064 A 0.99999994 0.97540796 0 0 0 14.000179 9.0247721 A 0.99999994 0.97540796 0 0 0 13.999146 8.9999674 L 14.000179 8.9999674 L 14.000179 6.0001506 A 0.99999994 0.99999982 0 0 0 13.00024 5.0002116 z " />
    <path
       id="path1"
       style="fill:#03ffe2;fill-opacity:1;stroke-width:0"
       d="M 6.8571901,0 V 1.3590363 A 3.2142448,3.2142444 0 0 0 5.7296989,1.8207962 L 4.7726263,0.86372409 3.8637237,1.7726269 4.8207957,2.7296989 A 3.2142448,3.2142444 0 0 0 4.3590361,3.8571904 H 3 V 5.1428095 H 4.3590361 A 3.2142448,3.2142444 0 0 0 4.8207957,6.270301 L 3.8637237,7.2273739 4.7726263,8.1366078 5.7296989,7.1795359 A 3.2142448,3.2142444 0 0 0 6.8571901,7.6412962 V 8.9999999 H 8.1428095 V 7.6412962 A 3.2142448,3.2142444 0 0 0 9.2703005,7.1795359 L 10.227374,8.1366078 11.136609,7.2273739 10.179536,6.270301 a 3.2142448,3.2142444 0 0 0 0.46176,-1.1274915 H 12 V 3.8571904 H 10.648936 A 3.2142448,3.2142444 0 0 0 10.181198,2.7280381 L 11.136609,1.7726269 10.227374,0.86339136 9.2719623,1.8188024 A 3.2142448,3.2142444 0 0 0 8.1428095,1.3513952 V 0 Z m 0.64281,3.2143806 A 1.2856979,1.2856978 0 0 1 8.7856193,4.5000001 1.2856979,1.2856978 0 0 1 7.5000001,5.7856194 1.2856979,1.2856978 0 0 1 6.2143804,4.5000001 1.2856979,1.2856978 0 0 1 7.5000001,3.2143806 Z" />
  </g>
</svg>
